<svg width="275" height="350" viewBox="0 0 275 350" fill="none" xmlns="http://www.w3.org/2000/svg">
<path d="M58.0556 200L137.5 250L216.944 200L152.778 159.583V216.667H122.222V159.583L58.0556 200ZM122.222 121.25V114.167C111.019 110.556 101.852 103.681 94.7222 93.5417C87.5926 83.4028 84.0278 71.6667 84.0278 58.3333C84.0278 42.2222 89.2477 28.4722 99.6875 17.0833C110.127 5.69444 122.731 0 137.5 0C152.269 0 164.873 5.69444 175.312 17.0833C185.752 28.4722 190.972 42.2222 190.972 58.3333C190.972 71.6667 187.407 83.4028 180.278 93.5417C173.148 103.681 163.981 110.556 152.778 114.167V121.25L259.722 188.333C264.56 191.389 268.316 195.486 270.99 200.625C273.663 205.764 275 211.389 275 217.5V249.167C275 255.278 273.663 260.903 270.99 266.042C268.316 271.181 264.56 275.278 259.722 278.333L152.778 345.417C147.94 348.472 142.847 350 137.5 350C132.153 350 127.06 348.472 122.222 345.417L15.2778 278.333C10.4398 275.278 6.68403 271.181 4.01042 266.042C1.33681 260.903 0 255.278 0 249.167V217.5C0 211.389 1.33681 205.764 4.01042 200.625C6.68403 195.486 10.4398 191.389 15.2778 188.333L122.222 121.25ZM122.222 278.75L30.5556 221.25V249.167L137.5 316.667L244.444 249.167V221.25L152.778 278.75C147.94 281.806 142.847 283.333 137.5 283.333C132.153 283.333 127.06 281.806 122.222 278.75ZM137.5 83.3333C143.866 83.3333 149.277 80.9028 153.733 76.0417C158.189 71.1806 160.417 65.2778 160.417 58.3333C160.417 51.3889 158.189 45.4861 153.733 40.625C149.277 35.7639 143.866 33.3333 137.5 33.3333C131.134 33.3333 125.723 35.7639 121.267 40.625C116.811 45.4861 114.583 51.3889 114.583 58.3333C114.583 65.2778 116.811 71.1806 121.267 76.0417C125.723 80.9028 131.134 83.3333 137.5 83.3333Z" fill="#2EC4B6"/>
</svg>
