<svg width="37" height="36" viewBox="0 0 37 36" fill="none" xmlns="http://www.w3.org/2000/svg">
<path d="M7.10809 27.18C8.67741 26.01 10.4314 25.0875 12.3699 24.4125C14.3085 23.7375 16.3394 23.4 18.4626 23.4C20.5858 23.4 22.6167 23.7375 24.5552 24.4125C26.4938 25.0875 28.2477 26.01 29.8171 27.18C30.8941 25.95 31.7326 24.555 32.3326 22.995C32.9326 21.435 33.2326 19.77 33.2326 18C33.2326 14.01 31.7941 10.6125 28.917 7.8075C26.0399 5.0025 22.5551 3.6 18.4626 3.6C14.37 3.6 10.8852 5.0025 8.00814 7.8075C5.13106 10.6125 3.69252 14.01 3.69252 18C3.69252 19.77 3.99253 21.435 4.59257 22.995C5.1926 24.555 6.03111 25.95 7.10809 27.18ZM18.4626 19.8C16.6471 19.8 15.1162 19.1925 13.87 17.9775C12.6238 16.7625 12.0007 15.27 12.0007 13.5C12.0007 11.73 12.6238 10.2375 13.87 9.0225C15.1162 7.8075 16.6471 7.2 18.4626 7.2C20.2781 7.2 21.8089 7.8075 23.0551 9.0225C24.3014 10.2375 24.9245 11.73 24.9245 13.5C24.9245 15.27 24.3014 16.7625 23.0551 17.9775C21.8089 19.1925 20.2781 19.8 18.4626 19.8ZM18.4626 36C15.9086 36 13.5085 35.5275 11.2622 34.5825C9.01589 33.6375 7.06194 32.355 5.4003 30.735C3.73867 29.115 2.42321 27.21 1.45393 25.02C0.484643 22.83 0 20.49 0 18C0 15.51 0.484643 13.17 1.45393 10.98C2.42321 8.79 3.73867 6.885 5.4003 5.265C7.06194 3.645 9.01589 2.3625 11.2622 1.4175C13.5085 0.4725 15.9086 0 18.4626 0C21.0166 0 23.4167 0.4725 25.663 1.4175C27.9093 2.3625 29.8632 3.645 31.5249 5.265C33.1865 6.885 34.5019 8.79 35.4712 10.98C36.4405 13.17 36.9252 15.51 36.9252 18C36.9252 20.49 36.4405 22.83 35.4712 25.02C34.5019 27.21 33.1865 29.115 31.5249 30.735C29.8632 32.355 27.9093 33.6375 25.663 34.5825C23.4167 35.5275 21.0166 36 18.4626 36ZM18.4626 32.4C20.0934 32.4 21.632 32.1675 23.0782 31.7025C24.5245 31.2375 25.8476 30.57 27.0477 29.7C25.8476 28.83 24.5245 28.1625 23.0782 27.6975C21.632 27.2325 20.0934 27 18.4626 27C16.8317 27 15.2932 27.2325 13.8469 27.6975C12.4007 28.1625 11.0775 28.83 9.87748 29.7C11.0775 30.57 12.4007 31.2375 13.8469 31.7025C15.2932 32.1675 16.8317 32.4 18.4626 32.4ZM18.4626 16.2C19.2626 16.2 19.9242 15.945 20.4473 15.435C20.9704 14.925 21.232 14.28 21.232 13.5C21.232 12.72 20.9704 12.075 20.4473 11.565C19.9242 11.055 19.2626 10.8 18.4626 10.8C17.6625 10.8 17.001 11.055 16.4779 11.565C15.9547 12.075 15.6932 12.72 15.6932 13.5C15.6932 14.28 15.9547 14.925 16.4779 15.435C17.001 15.945 17.6625 16.2 18.4626 16.2Z" fill="#1E9B8F"/>
</svg>
